<svg width="40" height="40" viewBox="0 0 40 40" fill="none" xmlns="http://www.w3.org/2000/svg">
<path d="M25.7535 9.10086L14.8523 20.0022L25.7535 30.9034C25.8349 30.9847 25.9061 31.0724 25.9671 31.1648C26.3518 31.7474 26.3323 32.5183 25.9086 33.0819C25.8619 33.1441 25.8102 33.2038 25.7535 33.2604C25.5795 33.4344 25.3766 33.5619 25.1603 33.6428C24.8708 33.7512 24.5573 33.7762 24.2567 33.718C23.9416 33.657 23.6406 33.5045 23.3965 33.2604L11.3168 21.1807C11.0042 20.868 10.8287 20.4442 10.8287 20.0022C10.8287 19.56 11.0042 19.1362 11.3168 18.8235L23.3965 6.74385C24.0474 6.09302 25.1027 6.09302 25.7535 6.74385C25.8349 6.82519 25.9061 6.91286 25.9671 7.00536C26.3943 7.65219 26.3231 8.53136 25.7535 9.10086Z" fill="black"/>
</svg>
