<svg width="40" height="40" viewBox="0 0 40 40" fill="none" xmlns="http://www.w3.org/2000/svg">
<path d="M14.2465 30.903L25.1477 20.0017L14.2465 9.10055C14.1651 9.0192 14.0939 8.93151 14.0329 8.8391C13.6482 8.2565 13.6677 7.48556 14.0914 6.92205C14.1381 6.85983 14.1898 6.80015 14.2465 6.74353C14.4205 6.56953 14.6234 6.44205 14.8397 6.36108C15.1292 6.25275 15.4427 6.22768 15.7433 6.28588C16.0584 6.3469 16.3594 6.49945 16.6035 6.74353L28.6832 18.8232C28.9958 19.1359 29.1713 19.5597 29.1713 20.0017C29.1713 20.4439 28.9958 20.8677 28.6832 21.1804L16.6035 33.2601C15.9526 33.9109 14.8973 33.9109 14.2465 33.2601C14.1651 33.1787 14.0939 33.0911 14.0329 32.9986C13.6057 32.3517 13.6769 31.4725 14.2465 30.903Z" fill="black"/>
</svg>
