<svg width="16" height="15" viewBox="0 0 16 15" fill="none" xmlns="http://www.w3.org/2000/svg">
<path d="M7.16858 14.1667C7.16858 14.6269 7.54174 15 8.00191 15C8.46216 15 8.83524 14.6269 8.83524 14.1667V8.33325H14.6686C15.1288 8.33325 15.5019 7.96017 15.5019 7.49992C15.5019 7.03967 15.1288 6.66658 14.6686 6.66658H8.83524V0.833333C8.83524 0.3731 8.46216 0 8.00191 0C7.54174 0 7.16858 0.3731 7.16858 0.833333V6.66658H1.33529C0.875053 6.66658 0.501953 7.03967 0.501953 7.49992C0.501953 7.96017 0.875053 8.33325 1.33529 8.33325H7.16858V14.1667Z" fill="black"/>
</svg>
