<svg width="18" height="18" viewBox="0 0 18 18" fill="none" xmlns="http://www.w3.org/2000/svg">
<path fill-rule="evenodd" clip-rule="evenodd" d="M8.23108 1.06018C8.51575 0.375773 9.48525 0.375773 9.76991 1.06018L11.7777 5.88763L16.9894 6.30545C17.7283 6.36469 18.0279 7.28677 17.465 7.76897L13.4942 11.1703L14.7073 16.2561C14.8793 16.9771 14.095 17.5469 13.4624 17.1606L9.0005 14.4352L4.53861 17.1606C3.90602 17.5469 3.12165 16.9771 3.29364 16.2561L4.50676 11.1703L0.536038 7.76897C-0.0269122 7.28677 0.272688 6.36469 1.01157 6.30545L6.22321 5.88763L8.23108 1.06018ZM10.2389 6.52769C10.4789 7.10475 11.0216 7.49905 11.6446 7.54897L14.8591 7.80664L12.41 9.90455C11.9353 10.3111 11.7281 10.9491 11.8731 11.5571L12.6213 14.6938L9.86925 13.0129C9.33591 12.6871 8.66508 12.6871 8.13175 13.0129L5.3797 14.6938L6.12794 11.5571C6.27295 10.9491 6.06566 10.3111 5.59101 9.90455L3.14192 7.80664L6.3564 7.54897C6.97938 7.49905 7.52208 7.10475 7.76208 6.52769L9.0005 3.55017L10.2389 6.52769Z" fill="#CBCAC5"/>
</svg>
