<svg width="40" height="40" viewBox="0 0 40 40" fill="none" xmlns="http://www.w3.org/2000/svg">
  <g clip-path="url(#clip0_60_164)">
    <path
      d="M38.9371 6.46357C39.5646 5.91036 39.4259 4.88505 38.6609 4.52458C38.6516 4.52325 37.5745 3.89794 36.7215 4.81107C36.2884 5.27458 36.1825 5.95208 36.4426 6.53075C36.8597 7.4588 37.0704 8.29482 37.0704 9.02489C37.0704 11.231 35.5394 13.0389 33.5159 13.5511L31.1721 14.7477L33.5159 15.9443C36.8631 15.3911 39.4141 12.5082 39.4141 9.02489C39.4141 8.22458 39.2542 7.36794 38.9371 6.46357Z"
      fill="#FF9F47" class="svg-elem-1"></path>
    <path
      d="M34.3444 2.10422L33.1727 0.932578C32.9444 0.704141 32.6408 0.585938 32.3439 0.585938C32.0441 0.585938 31.7441 0.703516 31.5151 0.932578L30.3434 2.10422C29.8858 2.56187 29.8858 3.30383 30.3434 3.76148C30.4521 3.87047 30.5813 3.95689 30.7235 4.01581C30.8657 4.07472 31.0181 4.10495 31.172 4.10477V13.5571C29.1063 13.0542 27.6172 11.2433 27.6172 9.02477C27.6172 8.30695 27.833 7.47156 28.2603 6.53266C28.5234 5.95453 28.4181 5.27547 27.9849 4.81109C27.1318 3.89664 26.0572 4.52313 26.0466 4.52461C25.284 4.88391 25.1438 5.90313 25.7641 6.45805C25.4379 7.37141 25.2734 8.22992 25.2734 9.02484C25.2734 12.5813 27.8288 15.4052 31.172 15.9462V38.2421C31.172 38.8893 31.6967 39.414 32.3439 39.414C32.9911 39.414 33.5158 38.8893 33.5158 38.2421V15.9441C32.8549 15.2833 32.8549 14.2119 33.5158 13.5511V4.10469C33.8157 4.10469 34.1156 3.99031 34.3444 3.76141C34.802 3.30383 34.802 2.5618 34.3444 2.10422Z"
      fill="#FF9F47" class="svg-elem-2"></path>
    <path
      d="M5.99463 35.8206L7.31869 37.1446C7.92818 37.7541 8.30723 38.5563 8.39111 39.4142M31.9859 27.6032C31.7094 27.4267 31.3883 27.3328 31.0603 27.3325C30.108 27.3325 29.3359 28.1046 29.3359 29.057C29.3359 30.0094 30.1079 30.7813 31.0603 30.7813C31.4712 30.7813 31.8715 30.6319 32.1864 30.3601"
      fill="white" class="svg-elem-3"></path>
    <path
      d="M5.99463 35.8206L7.31869 37.1446C7.92818 37.7541 8.30723 38.5563 8.39111 39.4142M31.9859 27.6032C31.7094 27.4267 31.3883 27.3328 31.0603 27.3325C30.108 27.3325 29.3359 28.1046 29.3359 29.057C29.3359 30.0094 30.1079 30.7813 31.0603 30.7813C31.4712 30.7813 31.8715 30.6319 32.1864 30.3601"
      stroke="black" stroke-miterlimit="10" stroke-linecap="round" stroke-linejoin="round"
      class="svg-elem-4"></path>
    <path
      d="M35.2564 31.2125C36.5763 30.6658 37.203 29.1527 36.6563 27.8329C36.1096 26.513 34.5965 25.8863 33.2767 26.433C31.9569 26.9797 31.3301 28.4928 31.8768 29.8126C32.4235 31.1324 33.9366 31.7592 35.2564 31.2125Z"
      fill="white" stroke="black" stroke-miterlimit="10" stroke-linecap="round"
      stroke-linejoin="round" class="svg-elem-5"></path>
    <path
      d="M21.334 11.1213L23.0063 6.83336C23.513 5.53398 21.8334 4.50633 20.9071 5.54906L20.0369 6.52875C19.0947 7.58945 17.3526 7.19109 16.9649 5.82633L15.6849 1.31961C15.5667 0.903047 15.1926 0.585938 14.7429 0.585938C14.5317 0.585946 14.3262 0.654844 14.1576 0.782183C13.989 0.909522 13.8666 1.08835 13.8089 1.29156L12.521 5.82633C12.1334 7.19109 10.3912 7.58945 9.44901 6.52875L8.57877 5.54906C7.65268 4.50633 5.97299 5.53398 6.47979 6.83336L8.15213 11.1217"
      stroke="black" stroke-miterlimit="10" stroke-linecap="round" stroke-linejoin="round"
      class="svg-elem-6"></path>
    <path
      d="M31.1721 30.7773V38.2423C31.1721 38.8895 31.6968 39.4142 32.344 39.4142C32.9912 39.4142 33.5159 38.8895 33.5159 38.2423V31.2989"
      stroke="black" stroke-miterlimit="10" stroke-linecap="round" stroke-linejoin="round"
      class="svg-elem-7"></path>
    <path
      d="M33.5158 26.3479V15.9442C36.863 15.391 39.4141 12.5081 39.4141 9.02484C39.4141 8.22461 39.2542 7.36797 38.9371 6.46359C39.5646 5.91039 39.4259 4.88508 38.6608 4.52461C38.6515 4.52328 37.5745 3.89797 36.7214 4.81109C36.2884 5.27461 36.1824 5.95211 36.4425 6.53078C36.8596 7.45883 37.0703 8.29484 37.0703 9.02492C37.0703 11.231 35.5393 13.0389 33.5158 13.5512V4.10477C33.8157 4.10477 34.1156 3.99039 34.3444 3.76148C34.8021 3.30383 34.8021 2.56187 34.3444 2.10422L33.1728 0.932578C32.9444 0.704141 32.6408 0.585938 32.3439 0.585938C32.0441 0.585938 31.7441 0.703516 31.5151 0.932578L30.3435 2.10422C29.8858 2.56187 29.8858 3.30383 30.3435 3.76148C30.4521 3.87047 30.5813 3.95689 30.7235 4.01581C30.8657 4.07472 31.0181 4.10495 31.1721 4.10477V13.5571C29.1063 13.0542 27.6172 11.2433 27.6172 9.02477C27.6172 8.30695 27.8331 7.47156 28.2603 6.53266C28.5234 5.95453 28.4181 5.27547 27.9849 4.81109C27.1318 3.89664 26.0572 4.52313 26.0467 4.52461C25.284 4.88391 25.1438 5.90313 25.7642 6.45805C25.4379 7.37141 25.2735 8.22992 25.2735 9.02484C25.2735 12.5813 27.8288 15.4052 31.1721 15.9462V27.3364M17.6949 32.4071C17.9942 32.0514 18.2496 31.5581 18.437 31.0009M11.0486 31.0009C11.236 31.5581 11.4914 32.0514 11.7906 32.4071M20.6928 39.4141C15.6435 39.4141 11.001 36.5209 8.70361 32.1404"
      stroke="black" stroke-miterlimit="10" stroke-linecap="round" stroke-linejoin="round"
      class="svg-elem-8"></path>
    <path
      d="M8.70347 32.1406C6.57925 33.9073 5.28394 36.5462 5.28394 39.4143H24.2017C24.2017 36.5346 22.8915 33.8981 20.7792 32.1412"
      stroke="black" stroke-miterlimit="10" stroke-linecap="round" stroke-linejoin="round"
      class="svg-elem-9"></path>
    <path
      d="M7.11768 31.4845C8.16689 32.0723 9.37541 32.4072 10.6585 32.4072H11.7906C12.1409 32.8234 12.5499 33.0519 12.9767 32.9778C13.0193 32.9704 13.0621 32.9606 13.1051 32.947C13.4707 33.7963 14.0678 34.35 14.7428 34.35C15.4178 34.35 16.0148 33.7963 16.3804 32.947C16.8532 33.0963 17.3096 32.865 17.6949 32.4071H18.8272C20.1121 32.4071 21.3201 32.072 22.3683 31.4844"
      stroke="black" stroke-miterlimit="10" stroke-linecap="round" stroke-linejoin="round"
      class="svg-elem-10"></path>
    <path
      d="M26.0811 24.3721C26.0475 21.0904 26.2764 19.6928 25.7328 17.5508C24.4664 12.5621 19.9601 9.00928 14.7429 9.00928C9.51142 9.00928 5.01541 12.5784 3.7533 17.5508C3.20978 19.6923 3.43853 21.0878 3.40494 24.3722"
      stroke="black" stroke-miterlimit="10" stroke-linecap="round" stroke-linejoin="round"
      class="svg-elem-11"></path>
    <path
      d="M9.89187 21.6554V22.5929M19.6575 21.6554V22.5929M23.489 35.8205C24.8695 35.5329 26.1361 34.8487 27.1334 33.8516C28.0427 32.9423 28.0427 31.468 27.1334 30.5587C26.2241 29.6493 26.2241 28.175 27.1334 27.2656L27.7109 26.6881C28.3384 26.0606 28.3384 25.0432 27.7109 24.4157C27.4096 24.1144 27.1622 23.8003 27.1622 23.3741M2.32367 23.3741C2.32367 23.8003 2.07625 24.1144 1.77492 24.4157C1.14742 25.0432 1.14742 26.0606 1.77492 26.6881L2.3525 27.2656C3.26187 28.1749 3.26187 29.6493 2.3525 30.5587C1.44312 31.4681 1.44312 32.9423 2.3525 33.8516C3.34914 34.8484 4.61496 35.5326 5.99477 35.8206M3.7532 17.5509C2.06039 17.3421 0.585938 18.6616 0.585938 20.3475C0.585938 21.9103 1.85656 23.1664 3.40477 23.1664M26.081 23.1663C27.6316 23.1663 28.8998 21.9081 28.8998 20.3474C28.8998 18.6624 27.4258 17.342 25.7326 17.5508M19.2098 28.0044C17.9577 29.0899 15.9202 29.0738 14.7429 27.6182C13.601 29.03 11.6245 29.1021 10.3484 28.0625C7.48906 26.4691 5.75148 23.4355 5.50656 20.1723C6.47984 19.8337 7.30336 19.1197 7.78031 18.169L8.49289 16.7485L9.97484 16.1928C13.049 15.0399 16.4368 15.0399 19.511 16.1928C20.4637 16.5501 21.2464 17.2538 21.7026 18.1632L21.7055 18.169C22.1774 19.1098 22.9888 19.8186 23.9489 20.1615C23.9077 20.7276 23.8216 21.2896 23.6913 21.842C23.078 24.4303 21.4954 26.692 19.2098 28.0044Z"
      stroke="black" stroke-miterlimit="10" stroke-linecap="round" stroke-linejoin="round"
      class="svg-elem-12"></path>
    <path
      d="M19.2099 28.0041C19.6943 27.5842 20.0575 27.0009 20.2017 26.2771C20.2644 25.9621 20.025 25.6677 19.7038 25.6677C18.9902 25.6677 18.3211 25.3616 17.8172 24.8562C16.9494 23.9858 15.5181 24.059 14.7429 25.0174C13.9693 24.0608 12.538 23.9842 11.6686 24.8562C11.1648 25.3616 10.4957 25.6677 9.78207 25.6677C9.4609 25.6677 9.22152 25.9621 9.28418 26.2771C9.43512 27.0353 9.82824 27.6384 10.3485 28.0623M20.8975 36.8979C20.7063 37.3729 20.608 37.8803 20.608 38.3923V39.4139M14.7429 15.328V13.793"
      stroke="black" stroke-miterlimit="10" stroke-linecap="round" stroke-linejoin="round"
      class="svg-elem-13"></path>
  </g>
  <defs>
    <clipPath id="clip0_60_164">
      <rect width="40" height="40" fill="white" class="svg-elem-14"></rect>
    </clipPath>
  </defs>
</svg>
